<?xml version="1.0" standalone="no"?>
<!DOCTYPE svg PUBLIC "-//W3C//DTD SVG 20010904//EN"
 "http://www.w3.org/TR/2001/REC-SVG-20010904/DTD/svg10.dtd">
<svg version="1.0" xmlns="http://www.w3.org/2000/svg"
 width="32.000000pt" height="32.000000pt" viewBox="0 0 32.000000 32.000000"
 preserveAspectRatio="xMidYMid meet">
<metadata>
Created by potrace 1.16, written by Peter Selinger 2001-2019
</metadata>
<g transform="translate(0.000000,32.000000) scale(0.100000,-0.100000)"
fill="#000000" stroke="none">
<path d="M149 293 c0 -11 -3 -13 -6 -5 -7 18 -22 14 -18 -5 2 -10 4 -22 4 -27
1 -5 8 -3 16 4 10 9 15 9 15 1 0 -6 -5 -11 -10 -11 -6 0 -15 -10 -20 -22 -8
-22 -9 -22 -9 5 -1 15 -6 27 -12 27 -6 0 -8 -9 -4 -21 5 -14 3 -19 -3 -15 -6
3 -14 -3 -17 -15 -5 -15 -2 -25 9 -31 20 -11 21 -29 2 -22 -11 4 -14 -1 -12
-18 5 -42 18 -78 27 -72 5 3 9 -4 9 -14 0 -11 7 -22 15 -26 8 -3 15 0 15 7 0
8 4 7 11 -3 8 -12 9 -7 6 18 -2 17 0 32 5 32 4 0 8 -11 8 -25 0 -25 14 -33 25
-15 3 6 1 10 -5 10 -7 0 -10 7 -6 15 3 8 -1 21 -9 29 -20 20 -19 25 5 19 11
-3 20 -14 20 -24 0 -11 5 -19 11 -19 6 0 8 7 5 16 -3 9 -6 21 -6 27 0 7 -14
18 -31 26 -26 12 -29 15 -15 23 22 12 20 25 -4 31 -11 3 -20 13 -20 24 1 17 1
17 14 1 7 -10 16 -15 20 -11 3 4 13 -3 22 -15 31 -45 43 -20 23 51 -11 39 -32
46 -36 11 -2 -10 0 -13 3 -6 3 6 11 12 16 12 6 0 8 -3 5 -6 -3 -4 -2 -15 4
-25 13 -26 -12 -26 -35 -1 -11 13 -14 28 -10 50 5 25 3 32 -10 32 -9 0 -16 -8
-17 -17z"/>
</g>
</svg>
